<svg viewBox="-16 -32 880 192" width="880" height="192" xmlns="http://www.w3.org/2000/svg"><desc>Generated with https://github.com/Platane/snk</desc><style>:root{--cb:#1b1f230a;--cs:purple;--ce:#161b22;--c0:#161b22;--c1:#01311f;--c2:#034525;--c3:#0f6d31;--c4:#00c647}.c{shape-rendering:geometricPrecision;fill:var(--ce);stroke-width:1px;stroke:var(--cb);animation:none 34300ms linear infinite;width:12px;height:12px}@keyframes c0{9.9%{fill:var(--c1)}9.92%,100%{fill:var(--ce)}}.c.c0{fill:var(--c1);animation-name:c0}@keyframes c1{75.5%{fill:var(--c3)}75.52%,100%{fill:var(--ce)}}.c.c1{fill:var(--c3);animation-name:c1}@keyframes c2{75.79%{fill:var(--c4)}75.81%,100%{fill:var(--ce)}}.c.c2{fill:var(--c4);animation-name:c2}@keyframes c3{23.02%{fill:var(--c1)}23.04%,100%{fill:var(--ce)}}.c.c3{fill:var(--c1);animation-name:c3}@keyframes c4{46.93%{fill:var(--c2)}46.95%,100%{fill:var(--ce)}}.c.c4{fill:var(--c2);animation-name:c4}@keyframes c5{46.35%{fill:var(--c2)}46.37%,100%{fill:var(--ce)}}.c.c5{fill:var(--c2);animation-name:c5}@keyframes c6{46.05%{fill:var(--c2)}46.07%,100%{fill:var(--ce)}}.c.c6{fill:var(--c2);animation-name:c6}@keyframes c7{47.51%{fill:var(--c2)}47.53%,100%{fill:var(--ce)}}.c.c7{fill:var(--c2);animation-name:c7}@keyframes c8{42.85%{fill:var(--c1)}42.87%,100%{fill:var(--ce)}}.c.c8{fill:var(--c1);animation-name:c8}@keyframes c9{43.14%{fill:var(--c2)}43.16%,100%{fill:var(--ce)}}.c.c9{fill:var(--c2);animation-name:c9}@keyframes ca{12.53%{fill:var(--c1)}12.55%,100%{fill:var(--ce)}}.c.ca{fill:var(--c1);animation-name:ca}@keyframes cb{22.44%{fill:var(--c1)}22.46%,100%{fill:var(--ce)}}.c.cb{fill:var(--c1);animation-name:cb}@keyframes cc{74.33%{fill:var(--c3)}74.35%,100%{fill:var(--ce)}}.c.cc{fill:var(--c3);animation-name:cc}@keyframes cd{43.72%{fill:var(--c2)}43.74%,100%{fill:var(--ce)}}.c.cd{fill:var(--c2);animation-name:cd}@keyframes ce{43.43%{fill:var(--c2)}43.45%,100%{fill:var(--ce)}}.c.ce{fill:var(--c2);animation-name:ce}@keyframes cf{12.82%{fill:var(--c1)}12.84%,100%{fill:var(--ce)}}.c.cf{fill:var(--c1);animation-name:cf}@keyframes cg{77.83%{fill:var(--c4)}77.85%,100%{fill:var(--ce)}}.c.cg{fill:var(--c4);animation-name:cg}@keyframes ch{48.39%{fill:var(--c2)}48.41%,100%{fill:var(--ce)}}.c.ch{fill:var(--c2);animation-name:ch}@keyframes ci{48.09%{fill:var(--c2)}48.11%,100%{fill:var(--ce)}}.c.ci{fill:var(--c2);animation-name:ci}@keyframes cj{74.04%{fill:var(--c3)}74.06%,100%{fill:var(--ce)}}.c.cj{fill:var(--c3);animation-name:cj}@keyframes ck{44.01%{fill:var(--c2)}44.03%,100%{fill:var(--ce)}}.c.ck{fill:var(--c2);animation-name:ck}@keyframes cl{13.4%{fill:var(--c1)}13.42%,100%{fill:var(--ce)}}.c.cl{fill:var(--c1);animation-name:cl}@keyframes cm{44.89%{fill:var(--c2)}44.91%,100%{fill:var(--ce)}}.c.cm{fill:var(--c2);animation-name:cm}@keyframes cn{48.97%{fill:var(--c2)}48.99%,100%{fill:var(--ce)}}.c.cn{fill:var(--c2);animation-name:cn}@keyframes co{72.88%{fill:var(--c3)}72.9%,100%{fill:var(--ce)}}.c.co{fill:var(--c3);animation-name:co}@keyframes cp{14.28%{fill:var(--c1)}14.3%,100%{fill:var(--ce)}}.c.cp{fill:var(--c1);animation-name:cp}@keyframes cq{16.61%{fill:var(--c1)}16.63%,100%{fill:var(--ce)}}.c.cq{fill:var(--c1);animation-name:cq}@keyframes cr{80.75%{fill:var(--c4)}80.77%,100%{fill:var(--ce)}}.c.cr{fill:var(--c4);animation-name:cr}@keyframes cs{66.75%{fill:var(--c3)}66.77%,100%{fill:var(--ce)}}.c.cs{fill:var(--c3);animation-name:cs}@keyframes ct{17.48%{fill:var(--c1)}17.5%,100%{fill:var(--ce)}}.c.ct{fill:var(--c1);animation-name:ct}@keyframes cu{55.09%{fill:var(--c2)}55.11%,100%{fill:var(--ce)}}.c.cu{fill:var(--c2);animation-name:cu}@keyframes cv{65.59%{fill:var(--c3)}65.61%,100%{fill:var(--ce)}}.c.cv{fill:var(--c3);animation-name:cv}@keyframes cw{54.8%{fill:var(--c2)}54.82%,100%{fill:var(--ce)}}.c.cw{fill:var(--c2);animation-name:cw}@keyframes cx{55.68%{fill:var(--c2)}55.7%,100%{fill:var(--ce)}}.c.cx{fill:var(--c2);animation-name:cx}@keyframes cy{65.3%{fill:var(--c3)}65.32%,100%{fill:var(--ce)}}.c.cy{fill:var(--c3);animation-name:cy}@keyframes cz{59.17%{fill:var(--c2)}59.19%,100%{fill:var(--ce)}}.c.cz{fill:var(--c2);animation-name:cz}@keyframes c10{52.18%{fill:var(--c2)}52.2%,100%{fill:var(--ce)}}.c.c10{fill:var(--c2);animation-name:c10}@keyframes c11{54.51%{fill:var(--c2)}54.53%,100%{fill:var(--ce)}}.c.c11{fill:var(--c2);animation-name:c11}@keyframes c12{82.21%{fill:var(--c4)}82.23%,100%{fill:var(--ce)}}.c.c12{fill:var(--c4);animation-name:c12}@keyframes c13{81.91%{fill:var(--c4)}81.93%,100%{fill:var(--ce)}}.c.c13{fill:var(--c4);animation-name:c13}@keyframes c14{35.56%{fill:var(--c1)}35.58%,100%{fill:var(--ce)}}.c.c14{fill:var(--c1);animation-name:c14}@keyframes c15{30.31%{fill:var(--c1)}30.33%,100%{fill:var(--ce)}}.c.c15{fill:var(--c1);animation-name:c15}@keyframes c16{28.85%{fill:var(--c2)}28.87%,100%{fill:var(--ce)}}.c.c16{fill:var(--c2);animation-name:c16}@keyframes c17{29.14%{fill:var(--c1)}29.16%,100%{fill:var(--ce)}}.c.c17{fill:var(--c1);animation-name:c17}@keyframes c18{62.96%{fill:var(--c3)}62.98%,100%{fill:var(--ce)}}.c.c18{fill:var(--c3);animation-name:c18}@keyframes c19{35.85%{fill:var(--c2)}35.87%,100%{fill:var(--ce)}}.c.c19{fill:var(--c2);animation-name:c19}@keyframes c1a{84.54%{fill:var(--c4)}84.56%,100%{fill:var(--ce)}}.c.c1a{fill:var(--c4);animation-name:c1a}@keyframes c1b{52.76%{fill:var(--c2)}52.78%,100%{fill:var(--ce)}}.c.c1b{fill:var(--c2);animation-name:c1b}@keyframes c1c{29.73%{fill:var(--c1)}29.75%,100%{fill:var(--ce)}}.c.c1c{fill:var(--c1);animation-name:c1c}@keyframes c1d{61.8%{fill:var(--c3)}61.82%,100%{fill:var(--ce)}}.c.c1d{fill:var(--c3);animation-name:c1d}@keyframes c1e{61.51%{fill:var(--c1)}61.53%,100%{fill:var(--ce)}}.c.c1e{fill:var(--c1);animation-name:c1e}@keyframes c1f{63.55%{fill:var(--c3)}63.57%,100%{fill:var(--ce)}}.c.c1f{fill:var(--c3);animation-name:c1f}@keyframes c1g{68.5%{fill:var(--c3)}68.52%,100%{fill:var(--ce)}}.c.c1g{fill:var(--c3);animation-name:c1g}@keyframes c1h{53.05%{fill:var(--c2)}53.07%,100%{fill:var(--ce)}}.c.c1h{fill:var(--c2);animation-name:c1h}@keyframes c1i{53.34%{fill:var(--c2)}53.36%,100%{fill:var(--ce)}}.c.c1i{fill:var(--c2);animation-name:c1i}@keyframes c1j{83.37%{fill:var(--c4)}83.39%,100%{fill:var(--ce)}}.c.c1j{fill:var(--c4);animation-name:c1j}@keyframes c1k{62.09%{fill:var(--c3)}62.11%,100%{fill:var(--ce)}}.c.c1k{fill:var(--c3);animation-name:c1k}.u{transform-origin:0 0;transform:scale(0,1);animation:none linear 34300ms infinite}@keyframes u0{9.9%{transform:scale(0.000,1)}9.92%,12.53%{transform:scale(0.111,1)}12.55%,12.82%{transform:scale(0.222,1)}12.84%,13.4%{transform:scale(0.333,1)}13.42%,14.28%{transform:scale(0.444,1)}14.3%,16.61%{transform:scale(0.556,1)}16.63%,17.48%{transform:scale(0.667,1)}17.5%,22.44%{transform:scale(0.778,1)}22.46%,23.02%{transform:scale(0.889,1)}23.04%,100%{transform:scale(1.000,1)}}.u.u0{fill:var(--c1);animation-name:u0;transform-origin:0.0px 0}@keyframes u1{28.85%{transform:scale(0.000,1)}28.87%,100%{transform:scale(1.000,1)}}.u.u1{fill:var(--c2);animation-name:u1;transform-origin:133.9px 0}@keyframes u2{29.14%{transform:scale(0.000,1)}29.16%,29.73%{transform:scale(0.250,1)}29.75%,30.31%{transform:scale(0.500,1)}30.33%,35.56%{transform:scale(0.750,1)}35.58%,100%{transform:scale(1.000,1)}}.u.u2{fill:var(--c1);animation-name:u2;transform-origin:148.8px 0}@keyframes u3{35.85%{transform:scale(0.000,1)}35.87%,100%{transform:scale(1.000,1)}}.u.u3{fill:var(--c2);animation-name:u3;transform-origin:208.3px 0}@keyframes u4{42.85%{transform:scale(0.000,1)}42.87%,100%{transform:scale(1.000,1)}}.u.u4{fill:var(--c1);animation-name:u4;transform-origin:223.2px 0}@keyframes u5{43.14%{transform:scale(0.000,1)}43.16%,43.43%{transform:scale(0.048,1)}43.45%,43.72%{transform:scale(0.095,1)}43.74%,44.01%{transform:scale(0.143,1)}44.03%,44.89%{transform:scale(0.190,1)}44.91%,46.05%{transform:scale(0.238,1)}46.07%,46.35%{transform:scale(0.286,1)}46.37%,46.93%{transform:scale(0.333,1)}46.95%,47.51%{transform:scale(0.381,1)}47.53%,48.09%{transform:scale(0.429,1)}48.11%,48.39%{transform:scale(0.476,1)}48.41%,48.97%{transform:scale(0.524,1)}48.99%,52.18%{transform:scale(0.571,1)}52.2%,52.76%{transform:scale(0.619,1)}52.78%,53.05%{transform:scale(0.667,1)}53.07%,53.34%{transform:scale(0.714,1)}53.36%,54.51%{transform:scale(0.762,1)}54.53%,54.8%{transform:scale(0.810,1)}54.82%,55.09%{transform:scale(0.857,1)}55.11%,55.68%{transform:scale(0.905,1)}55.7%,59.17%{transform:scale(0.952,1)}59.19%,100%{transform:scale(1.000,1)}}.u.u5{fill:var(--c2);animation-name:u5;transform-origin:238.0px 0}@keyframes u6{61.51%{transform:scale(0.000,1)}61.53%,100%{transform:scale(1.000,1)}}.u.u6{fill:var(--c1);animation-name:u6;transform-origin:550.5px 0}@keyframes u7{61.8%{transform:scale(0.000,1)}61.82%,62.09%{transform:scale(0.083,1)}62.11%,62.96%{transform:scale(0.167,1)}62.98%,63.55%{transform:scale(0.250,1)}63.57%,65.3%{transform:scale(0.333,1)}65.32%,65.59%{transform:scale(0.417,1)}65.61%,66.75%{transform:scale(0.500,1)}66.77%,68.5%{transform:scale(0.583,1)}68.52%,72.88%{transform:scale(0.667,1)}72.9%,74.04%{transform:scale(0.750,1)}74.06%,74.33%{transform:scale(0.833,1)}74.35%,75.5%{transform:scale(0.917,1)}75.52%,100%{transform:scale(1.000,1)}}.u.u7{fill:var(--c3);animation-name:u7;transform-origin:565.3px 0}@keyframes u8{75.79%{transform:scale(0.000,1)}75.81%,77.83%{transform:scale(0.143,1)}77.85%,80.75%{transform:scale(0.286,1)}80.77%,81.91%{transform:scale(0.429,1)}81.93%,82.21%{transform:scale(0.571,1)}82.23%,83.37%{transform:scale(0.714,1)}83.39%,84.54%{transform:scale(0.857,1)}84.56%,100%{transform:scale(1.000,1)}}.u.u8{fill:var(--c4);animation-name:u8;transform-origin:743.9px 0}.s{shape-rendering:geometricPrecision;fill:var(--cs);animation:none linear 34300ms infinite}@keyframes s0{0%,99.71%{transform:translate(0px,-16px)}0.29%{transform:translate(0px,0px)}8.75%{transform:translate(464px,0px)}9.91%{transform:translate(464px,64px)}11.08%{transform:translate(528px,64px)}11.66%{transform:translate(528px,96px)}12.24%{transform:translate(560px,96px)}12.54%{transform:translate(560px,80px)}13.12%{transform:translate(592px,80px)}13.41%{transform:translate(592px,96px)}15.74%{transform:translate(720px,96px)}16.03%{transform:translate(720px,80px)}16.33%{transform:translate(736px,80px)}17.2%{transform:translate(736px,32px)}17.78%{transform:translate(768px,32px)}18.66%{transform:translate(768px,-16px)}22.16%{transform:translate(576px,-16px)}22.45%{transform:translate(576px,0px)}23.03%{transform:translate(544px,0px)}23.32%{transform:translate(544px,-16px)}24.49%{transform:translate(608px,-16px)}25.36%{transform:translate(608px,32px)}28.86%,30.03%{transform:translate(800px,32px)}29.15%{transform:translate(800px,48px)}29.45%{transform:translate(816px,48px)}29.74%{transform:translate(816px,32px)}30.9%{transform:translate(800px,-16px)}31.78%{transform:translate(848px,-16px)}34.11%{transform:translate(848px,112px)}35.28%{transform:translate(784px,112px)}35.57%,81.63%{transform:translate(784px,96px)}35.86%,59.77%,63.27%,64.43%{transform:translate(800px,96px)}36.15%,60.06%{transform:translate(800px,112px)}41.11%{transform:translate(528px,112px)}42.27%{transform:translate(528px,48px)}42.86%{transform:translate(560px,48px)}43.15%{transform:translate(560px,64px)}43.44%{transform:translate(576px,64px)}43.73%{transform:translate(576px,48px)}44.31%{transform:translate(608px,48px)}44.9%{transform:translate(608px,80px)}46.06%{transform:translate(544px,80px)}46.94%{transform:translate(544px,32px)}47.23%{transform:translate(560px,32px)}47.52%{transform:translate(560px,16px)}48.1%,73.76%{transform:translate(592px,16px)}48.4%{transform:translate(592px,0px)}51.9%{transform:translate(784px,0px)}52.19%{transform:translate(784px,16px)}53.06%,68.22%{transform:translate(832px,16px)}53.35%{transform:translate(832px,32px)}54.23%{transform:translate(784px,32px)}54.52%{transform:translate(784px,48px)}55.1%{transform:translate(752px,48px)}55.39%{transform:translate(752px,64px)}55.69%{transform:translate(768px,64px)}55.98%{transform:translate(768px,48px)}56.85%{transform:translate(720px,48px)}58.02%{transform:translate(720px,112px)}58.89%{transform:translate(768px,112px)}59.18%,65.01%{transform:translate(768px,96px)}60.64%{transform:translate(832px,112px)}61.22%,62.39%{transform:translate(832px,80px)}61.52%,63.85%{transform:translate(816px,80px)}61.81%{transform:translate(816px,64px)}62.1%,83.09%{transform:translate(832px,64px)}62.97%,64.14%{transform:translate(800px,80px)}63.56%{transform:translate(816px,96px)}65.31%{transform:translate(768px,80px)}65.6%{transform:translate(752px,80px)}66.76%{transform:translate(752px,16px)}68.51%,84.26%{transform:translate(832px,0px)}68.8%{transform:translate(848px,0px)}69.1%{transform:translate(848px,16px)}74.05%{transform:translate(592px,32px)}74.34%,76.68%{transform:translate(576px,32px)}74.64%{transform:translate(576px,16px)}75.51%{transform:translate(528px,16px)}75.8%{transform:translate(528px,32px)}77.84%{transform:translate(576px,96px)}82.22%{transform:translate(784px,64px)}98.25%{transform:translate(64px,0px)}98.54%{transform:translate(64px,-16px)}}.s.s0{transform:translate(0px,-16px);animation-name:s0}@keyframes s1{0%,99.71%{transform:translate(16px,-16px)}0.29%{transform:translate(0px,-16px)}0.58%{transform:translate(0px,0px)}9.04%{transform:translate(464px,0px)}10.2%{transform:translate(464px,64px)}11.37%{transform:translate(528px,64px)}11.95%{transform:translate(528px,96px)}12.54%{transform:translate(560px,96px)}12.83%{transform:translate(560px,80px)}13.41%{transform:translate(592px,80px)}13.7%{transform:translate(592px,96px)}16.03%{transform:translate(720px,96px)}16.33%{transform:translate(720px,80px)}16.62%{transform:translate(736px,80px)}17.49%{transform:translate(736px,32px)}18.08%{transform:translate(768px,32px)}18.95%{transform:translate(768px,-16px)}22.45%{transform:translate(576px,-16px)}22.74%{transform:translate(576px,0px)}23.32%{transform:translate(544px,0px)}23.62%{transform:translate(544px,-16px)}24.78%{transform:translate(608px,-16px)}25.66%{transform:translate(608px,32px)}29.15%,30.32%{transform:translate(800px,32px)}29.45%{transform:translate(800px,48px)}29.74%{transform:translate(816px,48px)}30.03%{transform:translate(816px,32px)}31.2%{transform:translate(800px,-16px)}32.07%{transform:translate(848px,-16px)}34.4%{transform:translate(848px,112px)}35.57%{transform:translate(784px,112px)}35.86%,81.92%{transform:translate(784px,96px)}36.15%,60.06%,63.56%,64.72%{transform:translate(800px,96px)}36.44%,60.35%{transform:translate(800px,112px)}41.4%{transform:translate(528px,112px)}42.57%{transform:translate(528px,48px)}43.15%{transform:translate(560px,48px)}43.44%{transform:translate(560px,64px)}43.73%{transform:translate(576px,64px)}44.02%{transform:translate(576px,48px)}44.61%{transform:translate(608px,48px)}45.19%{transform:translate(608px,80px)}46.36%{transform:translate(544px,80px)}47.23%{transform:translate(544px,32px)}47.52%{transform:translate(560px,32px)}47.81%{transform:translate(560px,16px)}48.4%,74.05%{transform:translate(592px,16px)}48.69%{transform:translate(592px,0px)}52.19%{transform:translate(784px,0px)}52.48%{transform:translate(784px,16px)}53.35%,68.51%{transform:translate(832px,16px)}53.64%{transform:translate(832px,32px)}54.52%{transform:translate(784px,32px)}54.81%{transform:translate(784px,48px)}55.39%{transform:translate(752px,48px)}55.69%{transform:translate(752px,64px)}55.98%{transform:translate(768px,64px)}56.27%{transform:translate(768px,48px)}57.14%{transform:translate(720px,48px)}58.31%{transform:translate(720px,112px)}59.18%{transform:translate(768px,112px)}59.48%,65.31%{transform:translate(768px,96px)}60.93%{transform:translate(832px,112px)}61.52%,62.68%{transform:translate(832px,80px)}61.81%,64.14%{transform:translate(816px,80px)}62.1%{transform:translate(816px,64px)}62.39%,83.38%{transform:translate(832px,64px)}63.27%,64.43%{transform:translate(800px,80px)}63.85%{transform:translate(816px,96px)}65.6%{transform:translate(768px,80px)}65.89%{transform:translate(752px,80px)}67.06%{transform:translate(752px,16px)}68.8%,84.55%{transform:translate(832px,0px)}69.1%{transform:translate(848px,0px)}69.39%{transform:translate(848px,16px)}74.34%{transform:translate(592px,32px)}74.64%,76.97%{transform:translate(576px,32px)}74.93%{transform:translate(576px,16px)}75.8%{transform:translate(528px,16px)}76.09%{transform:translate(528px,32px)}78.13%{transform:translate(576px,96px)}82.51%{transform:translate(784px,64px)}98.54%{transform:translate(64px,0px)}98.83%{transform:translate(64px,-16px)}}.s.s1{transform:translate(16px,-16px);animation-name:s1}@keyframes s2{0%,99.71%{transform:translate(32px,-16px)}0.58%{transform:translate(0px,-16px)}0.87%{transform:translate(0px,0px)}9.33%{transform:translate(464px,0px)}10.5%{transform:translate(464px,64px)}11.66%{transform:translate(528px,64px)}12.24%{transform:translate(528px,96px)}12.83%{transform:translate(560px,96px)}13.12%{transform:translate(560px,80px)}13.7%{transform:translate(592px,80px)}13.99%{transform:translate(592px,96px)}16.33%{transform:translate(720px,96px)}16.62%{transform:translate(720px,80px)}16.91%{transform:translate(736px,80px)}17.78%{transform:translate(736px,32px)}18.37%{transform:translate(768px,32px)}19.24%{transform:translate(768px,-16px)}22.74%{transform:translate(576px,-16px)}23.03%{transform:translate(576px,0px)}23.62%{transform:translate(544px,0px)}23.91%{transform:translate(544px,-16px)}25.07%{transform:translate(608px,-16px)}25.95%{transform:translate(608px,32px)}29.45%,30.61%{transform:translate(800px,32px)}29.74%{transform:translate(800px,48px)}30.03%{transform:translate(816px,48px)}30.32%{transform:translate(816px,32px)}31.49%{transform:translate(800px,-16px)}32.36%{transform:translate(848px,-16px)}34.69%{transform:translate(848px,112px)}35.86%{transform:translate(784px,112px)}36.15%,82.22%{transform:translate(784px,96px)}36.44%,60.35%,63.85%,65.01%{transform:translate(800px,96px)}36.73%,60.64%{transform:translate(800px,112px)}41.69%{transform:translate(528px,112px)}42.86%{transform:translate(528px,48px)}43.44%{transform:translate(560px,48px)}43.73%{transform:translate(560px,64px)}44.02%{transform:translate(576px,64px)}44.31%{transform:translate(576px,48px)}44.9%{transform:translate(608px,48px)}45.48%{transform:translate(608px,80px)}46.65%{transform:translate(544px,80px)}47.52%{transform:translate(544px,32px)}47.81%{transform:translate(560px,32px)}48.1%{transform:translate(560px,16px)}48.69%,74.34%{transform:translate(592px,16px)}48.98%{transform:translate(592px,0px)}52.48%{transform:translate(784px,0px)}52.77%{transform:translate(784px,16px)}53.64%,68.8%{transform:translate(832px,16px)}53.94%{transform:translate(832px,32px)}54.81%{transform:translate(784px,32px)}55.1%{transform:translate(784px,48px)}55.69%{transform:translate(752px,48px)}55.98%{transform:translate(752px,64px)}56.27%{transform:translate(768px,64px)}56.56%{transform:translate(768px,48px)}57.43%{transform:translate(720px,48px)}58.6%{transform:translate(720px,112px)}59.48%{transform:translate(768px,112px)}59.77%,65.6%{transform:translate(768px,96px)}61.22%{transform:translate(832px,112px)}61.81%,62.97%{transform:translate(832px,80px)}62.1%,64.43%{transform:translate(816px,80px)}62.39%{transform:translate(816px,64px)}62.68%,83.67%{transform:translate(832px,64px)}63.56%,64.72%{transform:translate(800px,80px)}64.14%{transform:translate(816px,96px)}65.89%{transform:translate(768px,80px)}66.18%{transform:translate(752px,80px)}67.35%{transform:translate(752px,16px)}69.1%,84.84%{transform:translate(832px,0px)}69.39%{transform:translate(848px,0px)}69.68%{transform:translate(848px,16px)}74.64%{transform:translate(592px,32px)}74.93%,77.26%{transform:translate(576px,32px)}75.22%{transform:translate(576px,16px)}76.09%{transform:translate(528px,16px)}76.38%{transform:translate(528px,32px)}78.43%{transform:translate(576px,96px)}82.8%{transform:translate(784px,64px)}98.83%{transform:translate(64px,0px)}99.13%{transform:translate(64px,-16px)}}.s.s2{transform:translate(32px,-16px);animation-name:s2}@keyframes s3{0%,99.71%{transform:translate(48px,-16px)}0.87%{transform:translate(0px,-16px)}1.17%{transform:translate(0px,0px)}9.62%{transform:translate(464px,0px)}10.79%{transform:translate(464px,64px)}11.95%{transform:translate(528px,64px)}12.54%{transform:translate(528px,96px)}13.12%{transform:translate(560px,96px)}13.41%{transform:translate(560px,80px)}13.99%{transform:translate(592px,80px)}14.29%{transform:translate(592px,96px)}16.62%{transform:translate(720px,96px)}16.91%{transform:translate(720px,80px)}17.2%{transform:translate(736px,80px)}18.08%{transform:translate(736px,32px)}18.66%{transform:translate(768px,32px)}19.53%{transform:translate(768px,-16px)}23.03%{transform:translate(576px,-16px)}23.32%{transform:translate(576px,0px)}23.91%{transform:translate(544px,0px)}24.2%{transform:translate(544px,-16px)}25.36%{transform:translate(608px,-16px)}26.24%{transform:translate(608px,32px)}29.74%,30.9%{transform:translate(800px,32px)}30.03%{transform:translate(800px,48px)}30.32%{transform:translate(816px,48px)}30.61%{transform:translate(816px,32px)}31.78%{transform:translate(800px,-16px)}32.65%{transform:translate(848px,-16px)}34.99%{transform:translate(848px,112px)}36.15%{transform:translate(784px,112px)}36.44%,82.51%{transform:translate(784px,96px)}36.73%,60.64%,64.14%,65.31%{transform:translate(800px,96px)}37.03%,60.93%{transform:translate(800px,112px)}41.98%{transform:translate(528px,112px)}43.15%{transform:translate(528px,48px)}43.73%{transform:translate(560px,48px)}44.02%{transform:translate(560px,64px)}44.31%{transform:translate(576px,64px)}44.61%{transform:translate(576px,48px)}45.19%{transform:translate(608px,48px)}45.77%{transform:translate(608px,80px)}46.94%{transform:translate(544px,80px)}47.81%{transform:translate(544px,32px)}48.1%{transform:translate(560px,32px)}48.4%{transform:translate(560px,16px)}48.98%,74.64%{transform:translate(592px,16px)}49.27%{transform:translate(592px,0px)}52.77%{transform:translate(784px,0px)}53.06%{transform:translate(784px,16px)}53.94%,69.1%{transform:translate(832px,16px)}54.23%{transform:translate(832px,32px)}55.1%{transform:translate(784px,32px)}55.39%{transform:translate(784px,48px)}55.98%{transform:translate(752px,48px)}56.27%{transform:translate(752px,64px)}56.56%{transform:translate(768px,64px)}56.85%{transform:translate(768px,48px)}57.73%{transform:translate(720px,48px)}58.89%{transform:translate(720px,112px)}59.77%{transform:translate(768px,112px)}60.06%,65.89%{transform:translate(768px,96px)}61.52%{transform:translate(832px,112px)}62.1%,63.27%{transform:translate(832px,80px)}62.39%,64.72%{transform:translate(816px,80px)}62.68%{transform:translate(816px,64px)}62.97%,83.97%{transform:translate(832px,64px)}63.85%,65.01%{transform:translate(800px,80px)}64.43%{transform:translate(816px,96px)}66.18%{transform:translate(768px,80px)}66.47%{transform:translate(752px,80px)}67.64%{transform:translate(752px,16px)}69.39%,85.13%{transform:translate(832px,0px)}69.68%{transform:translate(848px,0px)}69.97%{transform:translate(848px,16px)}74.93%{transform:translate(592px,32px)}75.22%,77.55%{transform:translate(576px,32px)}75.51%{transform:translate(576px,16px)}76.38%{transform:translate(528px,16px)}76.68%{transform:translate(528px,32px)}78.72%{transform:translate(576px,96px)}83.09%{transform:translate(784px,64px)}99.13%{transform:translate(64px,0px)}99.42%{transform:translate(64px,-16px)}}.s.s3{transform:translate(48px,-16px);animation-name:s3}</style><rect class="c" x="2" y="2" rx="2" ry="2"/><rect class="c" x="2" y="18" rx="2" ry="2"/><rect class="c" x="2" y="34" rx="2" ry="2"/><rect class="c" x="2" y="50" rx="2" ry="2"/><rect class="c" x="2" y="66" rx="2" ry="2"/><rect class="c" x="2" y="82" rx="2" ry="2"/><rect class="c" x="2" y="98" rx="2" ry="2"/><rect class="c" x="18" y="2" rx="2" ry="2"/><rect class="c" x="18" y="18" rx="2" ry="2"/><rect class="c" x="18" y="34" rx="2" ry="2"/><rect class="c" x="18" y="50" rx="2" ry="2"/><rect class="c" x="18" y="66" rx="2" ry="2"/><rect class="c" x="18" y="82" rx="2" ry="2"/><rect class="c" x="18" y="98" rx="2" ry="2"/><rect class="c" x="34" y="2" rx="2" ry="2"/><rect class="c" x="34" y="18" rx="2" ry="2"/><rect class="c" x="34" y="34" rx="2" ry="2"/><rect class="c" x="34" y="50" rx="2" ry="2"/><rect class="c" x="34" y="66" rx="2" ry="2"/><rect class="c" x="34" y="82" rx="2" ry="2"/><rect class="c" x="34" y="98" rx="2" ry="2"/><rect class="c" x="50" y="2" rx="2" ry="2"/><rect class="c" x="50" y="18" rx="2" ry="2"/><rect class="c" x="50" y="34" rx="2" ry="2"/><rect class="c" x="50" y="50" rx="2" ry="2"/><rect class="c" x="50" y="66" rx="2" ry="2"/><rect class="c" x="50" y="82" rx="2" ry="2"/><rect class="c" x="50" y="98" rx="2" ry="2"/><rect class="c" x="66" y="2" rx="2" ry="2"/><rect class="c" x="66" y="18" rx="2" ry="2"/><rect class="c" x="66" y="34" rx="2" ry="2"/><rect class="c" x="66" y="50" rx="2" ry="2"/><rect class="c" x="66" y="66" rx="2" ry="2"/><rect class="c" x="66" y="82" rx="2" ry="2"/><rect class="c" x="66" y="98" rx="2" ry="2"/><rect class="c" x="82" y="2" rx="2" ry="2"/><rect class="c" x="82" y="18" rx="2" ry="2"/><rect class="c" x="82" y="34" rx="2" ry="2"/><rect class="c" x="82" y="50" rx="2" ry="2"/><rect class="c" x="82" y="66" rx="2" ry="2"/><rect class="c" x="82" y="82" rx="2" ry="2"/><rect class="c" x="82" y="98" rx="2" ry="2"/><rect class="c" x="98" y="2" rx="2" ry="2"/><rect class="c" x="98" y="18" rx="2" ry="2"/><rect class="c" x="98" y="34" rx="2" ry="2"/><rect class="c" x="98" y="50" rx="2" ry="2"/><rect class="c" x="98" y="66" rx="2" ry="2"/><rect class="c" x="98" y="82" rx="2" ry="2"/><rect class="c" x="98" y="98" rx="2" ry="2"/><rect class="c" x="114" y="2" rx="2" ry="2"/><rect class="c" x="114" y="18" rx="2" ry="2"/><rect class="c" x="114" y="34" rx="2" ry="2"/><rect class="c" x="114" y="50" rx="2" ry="2"/><rect class="c" x="114" y="66" rx="2" ry="2"/><rect class="c" x="114" y="82" rx="2" ry="2"/><rect class="c" x="114" y="98" rx="2" ry="2"/><rect class="c" x="130" y="2" rx="2" ry="2"/><rect class="c" x="130" y="18" rx="2" ry="2"/><rect class="c" x="130" y="34" rx="2" ry="2"/><rect class="c" x="130" y="50" rx="2" ry="2"/><rect class="c" x="130" y="66" rx="2" ry="2"/><rect class="c" x="130" y="82" rx="2" ry="2"/><rect class="c" x="130" y="98" rx="2" ry="2"/><rect class="c" x="146" y="2" rx="2" ry="2"/><rect class="c" x="146" y="18" rx="2" ry="2"/><rect class="c" x="146" y="34" rx="2" ry="2"/><rect class="c" x="146" y="50" rx="2" ry="2"/><rect class="c" x="146" y="66" rx="2" ry="2"/><rect class="c" x="146" y="82" rx="2" ry="2"/><rect class="c" x="146" y="98" rx="2" ry="2"/><rect class="c" x="162" y="2" rx="2" ry="2"/><rect class="c" x="162" y="18" rx="2" ry="2"/><rect class="c" x="162" y="34" rx="2" ry="2"/><rect class="c" x="162" y="50" rx="2" ry="2"/><rect class="c" x="162" y="66" rx="2" ry="2"/><rect class="c" x="162" y="82" rx="2" ry="2"/><rect class="c" x="162" y="98" rx="2" ry="2"/><rect class="c" x="178" y="2" rx="2" ry="2"/><rect class="c" x="178" y="18" rx="2" ry="2"/><rect class="c" x="178" y="34" rx="2" ry="2"/><rect class="c" x="178" y="50" rx="2" ry="2"/><rect class="c" x="178" y="66" rx="2" ry="2"/><rect class="c" x="178" y="82" rx="2" ry="2"/><rect class="c" x="178" y="98" rx="2" ry="2"/><rect class="c" x="194" y="2" rx="2" ry="2"/><rect class="c" x="194" y="18" rx="2" ry="2"/><rect class="c" x="194" y="34" rx="2" ry="2"/><rect class="c" x="194" y="50" rx="2" ry="2"/><rect class="c" x="194" y="66" rx="2" ry="2"/><rect class="c" x="194" y="82" rx="2" ry="2"/><rect class="c" x="194" y="98" rx="2" ry="2"/><rect class="c" x="210" y="2" rx="2" ry="2"/><rect class="c" x="210" y="18" rx="2" ry="2"/><rect class="c" x="210" y="34" rx="2" ry="2"/><rect class="c" x="210" y="50" rx="2" ry="2"/><rect class="c" x="210" y="66" rx="2" ry="2"/><rect class="c" x="210" y="82" rx="2" ry="2"/><rect class="c" x="210" y="98" rx="2" ry="2"/><rect class="c" x="226" y="2" rx="2" ry="2"/><rect class="c" x="226" y="18" rx="2" ry="2"/><rect class="c" x="226" y="34" rx="2" ry="2"/><rect class="c" x="226" y="50" rx="2" ry="2"/><rect class="c" x="226" y="66" rx="2" ry="2"/><rect class="c" x="226" y="82" rx="2" ry="2"/><rect class="c" x="226" y="98" rx="2" ry="2"/><rect class="c" x="242" y="2" rx="2" ry="2"/><rect class="c" x="242" y="18" rx="2" ry="2"/><rect class="c" x="242" y="34" rx="2" ry="2"/><rect class="c" x="242" y="50" rx="2" ry="2"/><rect class="c" x="242" y="66" rx="2" ry="2"/><rect class="c" x="242" y="82" rx="2" ry="2"/><rect class="c" x="242" y="98" rx="2" ry="2"/><rect class="c" x="258" y="2" rx="2" ry="2"/><rect class="c" x="258" y="18" rx="2" ry="2"/><rect class="c" x="258" y="34" rx="2" ry="2"/><rect class="c" x="258" y="50" rx="2" ry="2"/><rect class="c" x="258" y="66" rx="2" ry="2"/><rect class="c" x="258" y="82" rx="2" ry="2"/><rect class="c" x="258" y="98" rx="2" ry="2"/><rect class="c" x="274" y="2" rx="2" ry="2"/><rect class="c" x="274" y="18" rx="2" ry="2"/><rect class="c" x="274" y="34" rx="2" ry="2"/><rect class="c" x="274" y="50" rx="2" ry="2"/><rect class="c" x="274" y="66" rx="2" ry="2"/><rect class="c" x="274" y="82" rx="2" ry="2"/><rect class="c" x="274" y="98" rx="2" ry="2"/><rect class="c" x="290" y="2" rx="2" ry="2"/><rect class="c" x="290" y="18" rx="2" ry="2"/><rect class="c" x="290" y="34" rx="2" ry="2"/><rect class="c" x="290" y="50" rx="2" ry="2"/><rect class="c" x="290" y="66" rx="2" ry="2"/><rect class="c" x="290" y="82" rx="2" ry="2"/><rect class="c" x="290" y="98" rx="2" ry="2"/><rect class="c" x="306" y="2" rx="2" ry="2"/><rect class="c" x="306" y="18" rx="2" ry="2"/><rect class="c" x="306" y="34" rx="2" ry="2"/><rect class="c" x="306" y="50" rx="2" ry="2"/><rect class="c" x="306" y="66" rx="2" ry="2"/><rect class="c" x="306" y="82" rx="2" ry="2"/><rect class="c" x="306" y="98" rx="2" ry="2"/><rect class="c" x="322" y="2" rx="2" ry="2"/><rect class="c" x="322" y="18" rx="2" ry="2"/><rect class="c" x="322" y="34" rx="2" ry="2"/><rect class="c" x="322" y="50" rx="2" ry="2"/><rect class="c" x="322" y="66" rx="2" ry="2"/><rect class="c" x="322" y="82" rx="2" ry="2"/><rect class="c" x="322" y="98" rx="2" ry="2"/><rect class="c" x="338" y="2" rx="2" ry="2"/><rect class="c" x="338" y="18" rx="2" ry="2"/><rect class="c" x="338" y="34" rx="2" ry="2"/><rect class="c" x="338" y="50" rx="2" ry="2"/><rect class="c" x="338" y="66" rx="2" ry="2"/><rect class="c" x="338" y="82" rx="2" ry="2"/><rect class="c" x="338" y="98" rx="2" ry="2"/><rect class="c" x="354" y="2" rx="2" ry="2"/><rect class="c" x="354" y="18" rx="2" ry="2"/><rect class="c" x="354" y="34" rx="2" ry="2"/><rect class="c" x="354" y="50" rx="2" ry="2"/><rect class="c" x="354" y="66" rx="2" ry="2"/><rect class="c" x="354" y="82" rx="2" ry="2"/><rect class="c" x="354" y="98" rx="2" ry="2"/><rect class="c" x="370" y="2" rx="2" ry="2"/><rect class="c" x="370" y="18" rx="2" ry="2"/><rect class="c" x="370" y="34" rx="2" ry="2"/><rect class="c" x="370" y="50" rx="2" ry="2"/><rect class="c" x="370" y="66" rx="2" ry="2"/><rect class="c" x="370" y="82" rx="2" ry="2"/><rect class="c" x="370" y="98" rx="2" ry="2"/><rect class="c" x="386" y="2" rx="2" ry="2"/><rect class="c" x="386" y="18" rx="2" ry="2"/><rect class="c" x="386" y="34" rx="2" ry="2"/><rect class="c" x="386" y="50" rx="2" ry="2"/><rect class="c" x="386" y="66" rx="2" ry="2"/><rect class="c" x="386" y="82" rx="2" ry="2"/><rect class="c" x="386" y="98" rx="2" ry="2"/><rect class="c" x="402" y="2" rx="2" ry="2"/><rect class="c" x="402" y="18" rx="2" ry="2"/><rect class="c" x="402" y="34" rx="2" ry="2"/><rect class="c" x="402" y="50" rx="2" ry="2"/><rect class="c" x="402" y="66" rx="2" ry="2"/><rect class="c" x="402" y="82" rx="2" ry="2"/><rect class="c" x="402" y="98" rx="2" ry="2"/><rect class="c" x="418" y="2" rx="2" ry="2"/><rect class="c" x="418" y="18" rx="2" ry="2"/><rect class="c" x="418" y="34" rx="2" ry="2"/><rect class="c" x="418" y="50" rx="2" ry="2"/><rect class="c" x="418" y="66" rx="2" ry="2"/><rect class="c" x="418" y="82" rx="2" ry="2"/><rect class="c" x="418" y="98" rx="2" ry="2"/><rect class="c" x="434" y="2" rx="2" ry="2"/><rect class="c" x="434" y="18" rx="2" ry="2"/><rect class="c" x="434" y="34" rx="2" ry="2"/><rect class="c" x="434" y="50" rx="2" ry="2"/><rect class="c" x="434" y="66" rx="2" ry="2"/><rect class="c" x="434" y="82" rx="2" ry="2"/><rect class="c" x="434" y="98" rx="2" ry="2"/><rect class="c" x="450" y="2" rx="2" ry="2"/><rect class="c" x="450" y="18" rx="2" ry="2"/><rect class="c" x="450" y="34" rx="2" ry="2"/><rect class="c" x="450" y="50" rx="2" ry="2"/><rect class="c" x="450" y="66" rx="2" ry="2"/><rect class="c" x="450" y="82" rx="2" ry="2"/><rect class="c" x="450" y="98" rx="2" ry="2"/><rect class="c" x="466" y="2" rx="2" ry="2"/><rect class="c" x="466" y="18" rx="2" ry="2"/><rect class="c" x="466" y="34" rx="2" ry="2"/><rect class="c" x="466" y="50" rx="2" ry="2"/><rect class="c c0" x="466" y="66" rx="2" ry="2"/><rect class="c" x="466" y="82" rx="2" ry="2"/><rect class="c" x="466" y="98" rx="2" ry="2"/><rect class="c" x="482" y="2" rx="2" ry="2"/><rect class="c" x="482" y="18" rx="2" ry="2"/><rect class="c" x="482" y="34" rx="2" ry="2"/><rect class="c" x="482" y="50" rx="2" ry="2"/><rect class="c" x="482" y="66" rx="2" ry="2"/><rect class="c" x="482" y="82" rx="2" ry="2"/><rect class="c" x="482" y="98" rx="2" ry="2"/><rect class="c" x="498" y="2" rx="2" ry="2"/><rect class="c" x="498" y="18" rx="2" ry="2"/><rect class="c" x="498" y="34" rx="2" ry="2"/><rect class="c" x="498" y="50" rx="2" ry="2"/><rect class="c" x="498" y="66" rx="2" ry="2"/><rect class="c" x="498" y="82" rx="2" ry="2"/><rect class="c" x="498" y="98" rx="2" ry="2"/><rect class="c" x="514" y="2" rx="2" ry="2"/><rect class="c" x="514" y="18" rx="2" ry="2"/><rect class="c" x="514" y="34" rx="2" ry="2"/><rect class="c" x="514" y="50" rx="2" ry="2"/><rect class="c" x="514" y="66" rx="2" ry="2"/><rect class="c" x="514" y="82" rx="2" ry="2"/><rect class="c" x="514" y="98" rx="2" ry="2"/><rect class="c" x="530" y="2" rx="2" ry="2"/><rect class="c c1" x="530" y="18" rx="2" ry="2"/><rect class="c c2" x="530" y="34" rx="2" ry="2"/><rect class="c" x="530" y="50" rx="2" ry="2"/><rect class="c" x="530" y="66" rx="2" ry="2"/><rect class="c" x="530" y="82" rx="2" ry="2"/><rect class="c" x="530" y="98" rx="2" ry="2"/><rect class="c c3" x="546" y="2" rx="2" ry="2"/><rect class="c" x="546" y="18" rx="2" ry="2"/><rect class="c c4" x="546" y="34" rx="2" ry="2"/><rect class="c" x="546" y="50" rx="2" ry="2"/><rect class="c c5" x="546" y="66" rx="2" ry="2"/><rect class="c c6" x="546" y="82" rx="2" ry="2"/><rect class="c" x="546" y="98" rx="2" ry="2"/><rect class="c" x="562" y="2" rx="2" ry="2"/><rect class="c c7" x="562" y="18" rx="2" ry="2"/><rect class="c" x="562" y="34" rx="2" ry="2"/><rect class="c c8" x="562" y="50" rx="2" ry="2"/><rect class="c c9" x="562" y="66" rx="2" ry="2"/><rect class="c ca" x="562" y="82" rx="2" ry="2"/><rect class="c" x="562" y="98" rx="2" ry="2"/><rect class="c cb" x="578" y="2" rx="2" ry="2"/><rect class="c" x="578" y="18" rx="2" ry="2"/><rect class="c cc" x="578" y="34" rx="2" ry="2"/><rect class="c cd" x="578" y="50" rx="2" ry="2"/><rect class="c ce" x="578" y="66" rx="2" ry="2"/><rect class="c cf" x="578" y="82" rx="2" ry="2"/><rect class="c cg" x="578" y="98" rx="2" ry="2"/><rect class="c ch" x="594" y="2" rx="2" ry="2"/><rect class="c ci" x="594" y="18" rx="2" ry="2"/><rect class="c cj" x="594" y="34" rx="2" ry="2"/><rect class="c ck" x="594" y="50" rx="2" ry="2"/><rect class="c" x="594" y="66" rx="2" ry="2"/><rect class="c" x="594" y="82" rx="2" ry="2"/><rect class="c cl" x="594" y="98" rx="2" ry="2"/><rect class="c" x="610" y="2" rx="2" ry="2"/><rect class="c" x="610" y="18" rx="2" ry="2"/><rect class="c" x="610" y="34" rx="2" ry="2"/><rect class="c" x="610" y="50" rx="2" ry="2"/><rect class="c" x="610" y="66" rx="2" ry="2"/><rect class="c cm" x="610" y="82" rx="2" ry="2"/><rect class="c" x="610" y="98" rx="2" ry="2"/><rect class="c cn" x="626" y="2" rx="2" ry="2"/><rect class="c" x="626" y="18" rx="2" ry="2"/><rect class="c" x="626" y="34" rx="2" ry="2"/><rect class="c" x="626" y="50" rx="2" ry="2"/><rect class="c" x="626" y="66" rx="2" ry="2"/><rect class="c" x="626" y="82" rx="2" ry="2"/><rect class="c" x="626" y="98" rx="2" ry="2"/><rect class="c" x="642" y="2" rx="2" ry="2"/><rect class="c co" x="642" y="18" rx="2" ry="2"/><rect class="c" x="642" y="34" rx="2" ry="2"/><rect class="c" x="642" y="50" rx="2" ry="2"/><rect class="c" x="642" y="66" rx="2" ry="2"/><rect class="c" x="642" y="82" rx="2" ry="2"/><rect class="c cp" x="642" y="98" rx="2" ry="2"/><rect class="c" x="658" y="2" rx="2" ry="2"/><rect class="c" x="658" y="18" rx="2" ry="2"/><rect class="c" x="658" y="34" rx="2" ry="2"/><rect class="c" x="658" y="50" rx="2" ry="2"/><rect class="c" x="658" y="66" rx="2" ry="2"/><rect class="c" x="658" y="82" rx="2" ry="2"/><rect class="c" x="658" y="98" rx="2" ry="2"/><rect class="c" x="674" y="2" rx="2" ry="2"/><rect class="c" x="674" y="18" rx="2" ry="2"/><rect class="c" x="674" y="34" rx="2" ry="2"/><rect class="c" x="674" y="50" rx="2" ry="2"/><rect class="c" x="674" y="66" rx="2" ry="2"/><rect class="c" x="674" y="82" rx="2" ry="2"/><rect class="c" x="674" y="98" rx="2" ry="2"/><rect class="c" x="690" y="2" rx="2" ry="2"/><rect class="c" x="690" y="18" rx="2" ry="2"/><rect class="c" x="690" y="34" rx="2" ry="2"/><rect class="c" x="690" y="50" rx="2" ry="2"/><rect class="c" x="690" y="66" rx="2" ry="2"/><rect class="c" x="690" y="82" rx="2" ry="2"/><rect class="c" x="690" y="98" rx="2" ry="2"/><rect class="c" x="706" y="2" rx="2" ry="2"/><rect class="c" x="706" y="18" rx="2" ry="2"/><rect class="c" x="706" y="34" rx="2" ry="2"/><rect class="c" x="706" y="50" rx="2" ry="2"/><rect class="c" x="706" y="66" rx="2" ry="2"/><rect class="c" x="706" y="82" rx="2" ry="2"/><rect class="c" x="706" y="98" rx="2" ry="2"/><rect class="c" x="722" y="2" rx="2" ry="2"/><rect class="c" x="722" y="18" rx="2" ry="2"/><rect class="c" x="722" y="34" rx="2" ry="2"/><rect class="c" x="722" y="50" rx="2" ry="2"/><rect class="c" x="722" y="66" rx="2" ry="2"/><rect class="c" x="722" y="82" rx="2" ry="2"/><rect class="c" x="722" y="98" rx="2" ry="2"/><rect class="c" x="738" y="2" rx="2" ry="2"/><rect class="c" x="738" y="18" rx="2" ry="2"/><rect class="c" x="738" y="34" rx="2" ry="2"/><rect class="c" x="738" y="50" rx="2" ry="2"/><rect class="c cq" x="738" y="66" rx="2" ry="2"/><rect class="c" x="738" y="82" rx="2" ry="2"/><rect class="c cr" x="738" y="98" rx="2" ry="2"/><rect class="c" x="754" y="2" rx="2" ry="2"/><rect class="c cs" x="754" y="18" rx="2" ry="2"/><rect class="c ct" x="754" y="34" rx="2" ry="2"/><rect class="c cu" x="754" y="50" rx="2" ry="2"/><rect class="c" x="754" y="66" rx="2" ry="2"/><rect class="c cv" x="754" y="82" rx="2" ry="2"/><rect class="c" x="754" y="98" rx="2" ry="2"/><rect class="c" x="770" y="2" rx="2" ry="2"/><rect class="c" x="770" y="18" rx="2" ry="2"/><rect class="c" x="770" y="34" rx="2" ry="2"/><rect class="c cw" x="770" y="50" rx="2" ry="2"/><rect class="c cx" x="770" y="66" rx="2" ry="2"/><rect class="c cy" x="770" y="82" rx="2" ry="2"/><rect class="c cz" x="770" y="98" rx="2" ry="2"/><rect class="c" x="786" y="2" rx="2" ry="2"/><rect class="c c10" x="786" y="18" rx="2" ry="2"/><rect class="c" x="786" y="34" rx="2" ry="2"/><rect class="c c11" x="786" y="50" rx="2" ry="2"/><rect class="c c12" x="786" y="66" rx="2" ry="2"/><rect class="c c13" x="786" y="82" rx="2" ry="2"/><rect class="c c14" x="786" y="98" rx="2" ry="2"/><rect class="c" x="802" y="2" rx="2" ry="2"/><rect class="c c15" x="802" y="18" rx="2" ry="2"/><rect class="c c16" x="802" y="34" rx="2" ry="2"/><rect class="c c17" x="802" y="50" rx="2" ry="2"/><rect class="c" x="802" y="66" rx="2" ry="2"/><rect class="c c18" x="802" y="82" rx="2" ry="2"/><rect class="c c19" x="802" y="98" rx="2" ry="2"/><rect class="c c1a" x="818" y="2" rx="2" ry="2"/><rect class="c c1b" x="818" y="18" rx="2" ry="2"/><rect class="c c1c" x="818" y="34" rx="2" ry="2"/><rect class="c" x="818" y="50" rx="2" ry="2"/><rect class="c c1d" x="818" y="66" rx="2" ry="2"/><rect class="c c1e" x="818" y="82" rx="2" ry="2"/><rect class="c c1f" x="818" y="98" rx="2" ry="2"/><rect class="c c1g" x="834" y="2" rx="2" ry="2"/><rect class="c c1h" x="834" y="18" rx="2" ry="2"/><rect class="c c1i" x="834" y="34" rx="2" ry="2"/><rect class="c c1j" x="834" y="50" rx="2" ry="2"/><rect class="c c1k" x="834" y="66" rx="2" ry="2"/><rect class="u u0" height="12" width="134.5" x="0.0" y="144"/><rect class="u u1" height="12" width="15.5" x="133.9" y="144"/><rect class="u u2" height="12" width="60.1" x="148.8" y="144"/><rect class="u u3" height="12" width="15.5" x="208.3" y="144"/><rect class="u u4" height="12" width="15.5" x="223.2" y="144"/><rect class="u u5" height="12" width="313.0" x="238.0" y="144"/><rect class="u u6" height="12" width="15.5" x="550.5" y="144"/><rect class="u u7" height="12" width="179.1" x="565.3" y="144"/><rect class="u u8" height="12" width="104.7" x="743.9" y="144"/><rect class="s s0" x="0.8" y="0.8" width="14.4" height="14.4" rx="4.5" ry="4.5"/><rect class="s s1" x="1.8" y="1.8" width="12.3" height="12.3" rx="4.1" ry="4.1"/><rect class="s s2" x="2.6" y="2.6" width="10.8" height="10.8" rx="3.6" ry="3.6"/><rect class="s s3" x="3.0" y="3.0" width="9.9" height="9.9" rx="3.3" ry="3.3"/></svg>